<svg width="191" height="188" viewBox="0 0 191 188" fill="none" xmlns="http://www.w3.org/2000/svg">
<path d="M126.192 132.386C148.754 136.796 165.438 129.381 171.107 125.067C169.536 118.123 161.468 101.862 141.351 90.7382C120.986 79.4779 103.12 90.8146 96.6254 97.9448C97.0165 107.584 103.354 127.921 126.192 132.386Z" fill="#3D9448"/>
<path d="M169.744 125.608C170.081 125.731 170.454 125.557 170.577 125.22L170.799 124.609C170.921 124.272 170.748 123.899 170.41 123.776L86.1643 93.1133L85.4977 94.9447L169.744 125.608Z" fill="#3D9448"/>
<path d="M94.3047 44.7732C108.753 26.8928 126.3 21.848 133.416 21.5092C136.675 27.8381 140.948 45.4807 132.687 66.9333C124.325 88.6493 103.352 91.449 93.7932 90.1615C87.8971 82.5264 79.6792 62.8732 94.3047 44.7732Z" fill="#3D9448"/>
<path d="M132.024 21.9708C132.203 21.6601 132.6 21.5536 132.911 21.733L133.474 22.0579C133.785 22.2373 133.891 22.6346 133.712 22.9453L88.8852 100.587L87.1973 99.6125L132.024 21.9708Z" fill="#3D9448"/>
<path d="M126.147 117.179C130.557 139.741 123.142 156.425 118.828 162.094C111.884 160.523 95.6228 152.455 84.4992 132.338C73.2389 111.973 84.5756 94.107 91.7058 87.6125C101.345 88.0036 121.682 94.3412 126.147 117.179Z" fill="#408349"/>
<path d="M119.369 160.731C119.492 161.068 119.318 161.441 118.981 161.564L118.37 161.786C118.033 161.909 117.66 161.735 117.537 161.398L86.8743 77.1513L88.7057 76.4847L119.369 160.731Z" fill="#408349"/>
<path d="M62.0625 71.2715C57.6523 48.7104 65.0669 32.0256 69.3812 26.3571C76.3247 27.9281 92.5862 35.9955 103.71 56.1131C114.97 76.4778 103.633 94.3439 96.5032 100.838C86.8644 100.447 66.5268 94.1097 62.0625 71.2715Z" fill="#408349"/>
<path d="M68.8402 27.72C68.7175 27.3828 68.8913 27.01 69.2285 26.8873L69.8389 26.6651C70.1761 26.5424 70.5489 26.7162 70.6716 27.0534L101.335 111.3L99.5033 111.966L68.8402 27.72Z" fill="#408349"/>
<path d="M114.786 59.872C137.347 55.4619 154.032 62.8765 159.701 67.1908C158.129 74.1343 150.062 90.3957 129.944 101.519C109.58 112.78 91.7137 101.443 85.2191 94.3127C85.6102 84.674 91.9479 64.3363 114.786 59.872Z" fill="#3B8E46"/>
<path d="M158.338 66.6498C158.675 66.527 159.048 66.7009 159.17 67.038L159.393 67.6485C159.515 67.9857 159.341 68.3585 159.004 68.4812L74.758 99.1443L74.0914 97.3129L158.338 66.6498Z" fill="#3B8E46"/>
<path d="M54.2678 83.8111C34.1501 94.9348 26.1349 111.339 24.5657 118.288C30.2324 122.597 46.865 129.869 69.4262 125.458C92.2644 120.994 98.6636 100.826 99.0554 91.1889C92.5601 84.0566 74.6325 72.5509 54.2678 83.8111Z" fill="#3B8E46"/>
<path d="M25.262 116.998C24.9248 117.12 24.751 117.493 24.8737 117.83L25.0959 118.441C25.2186 118.778 25.5914 118.952 25.9286 118.829L110.175 88.1659L109.508 86.3344L25.262 116.998Z" fill="#3B8E46"/>
<path d="M99.3476 142.156C84.8996 160.037 67.3523 165.081 60.2367 165.42C56.9771 159.091 52.7044 141.449 60.9652 119.996C69.3275 98.2802 90.3008 95.4804 99.8592 96.7679C105.755 104.403 113.973 124.056 99.3476 142.156Z" fill="#3D9448"/>
<path d="M61.6286 164.959C61.4492 165.269 61.0519 165.376 60.7411 165.196L60.1785 164.872C59.8678 164.692 59.7613 164.295 59.9407 163.984L104.767 86.3424L106.455 87.3169L61.6286 164.959Z" fill="#3D9448"/>
<path d="M65.7706 55.1589C43.2094 50.7488 26.5246 58.1634 20.8561 62.4777C22.4272 69.4211 30.4945 85.6826 50.6122 96.8063C70.9768 108.067 88.843 96.7299 95.3375 89.5996C94.9464 79.9608 88.6088 59.6232 65.7706 55.1589Z" fill="#3D9448"/>
<path d="M22.219 61.9366C21.8818 61.8139 21.509 61.9877 21.3863 62.3249L21.1641 62.9354C21.0414 63.2725 21.2153 63.6453 21.5524 63.7681L105.799 94.4312L106.465 92.5997L22.219 61.9366Z" fill="#3D9448"/>
<circle cx="92.0162" cy="93.4501" r="18.8711" transform="rotate(70 92.0162 93.4501)" fill="#D44056"/>
</svg>
